<?xml version="1.0" standalone="no"?>
<!DOCTYPE svg PUBLIC "-//W3C//DTD SVG 20010904//EN"
 "http://www.w3.org/TR/2001/REC-SVG-20010904/DTD/svg10.dtd">
<svg version="1.0" xmlns="http://www.w3.org/2000/svg"
 width="512.000000pt" height="512.000000pt" viewBox="0 0 512.000000 512.000000"
 preserveAspectRatio="xMidYMid meet">
<metadata>
Created by potrace 1.11, written by Peter Selinger 2001-2013
</metadata>
<g transform="translate(0.000000,512.000000) scale(0.100000,-0.100000)"
fill="#000000" stroke="none">
<path d="M2417 4904 c-1 -1 -31 -5 -67 -8 -144 -12 -234 -28 -370 -63 -649
-166 -1196 -600 -1504 -1193 -76 -147 -171 -399 -192 -510 -3 -14 -10 -43 -16
-65 -5 -22 -11 -49 -13 -60 -9 -63 -18 -123 -21 -140 -25 -118 -24 -645 0
-830 34 -252 113 -506 227 -734 48 -95 89 -171 99 -181 3 -3 11 -17 19 -32 20
-38 163 -229 220 -291 283 -315 639 -552 1006 -672 137 -44 186 -58 260 -71
17 -3 46 -9 65 -14 36 -9 91 -16 220 -30 82 -8 433 -5 490 5 19 3 71 12 115
20 44 8 91 16 105 19 281 49 700 246 945 443 523 423 829 985 891 1638 9 95 9
553 0 644 -73 724 -448 1345 -1051 1745 -116 77 -338 189 -477 240 -101 37
-337 100 -423 111 -91 13 -99 14 -170 21 -63 6 -353 13 -358 8z"/>
</g>
</svg>
